<svg xmlns="http://www.w3.org/2000/svg" version="1.1" xmlns:xlink="http://www.w3.org/1999/xlink" xmlns:svgjs="http://svgjs.com/svgjs" height="268.0599960327149" width="265.53436279296875"><defs id="SvgjsDefs7432"></defs><g id="SvgjsG7433" rel="mainfill" name="main_text" xmlns:name="main_text" transform="translate(44.70218324661255,-63.29000167846678)" fill="#ffffff"><path d="M25.59 194.72C25.59 189.66 25.59 171.52 25.73 165.47C26.02 159.84 26.16 158.02 29.11 157.03C30.09 156.75 33.19 156.19 35.16 155.91C35.44 155.63 35.44 154.08 35.16 153.80C31.92 153.80 25.73 154.22 20.25 154.22C12.94 154.22 7.45 153.80 4.08 153.80C3.80 154.22 3.80 155.63 4.08 155.91C5.62 156.19 8.44 156.33 10.12 156.75C13.36 157.59 14.34 158.86 14.62 164.34C15.05 172.36 14.91 184.17 14.91 194.86C14.91 206.39 15.05 220.45 14.62 228.61C14.34 233.81 13.92 236.48 9.98 237.33C8.16 237.75 6.47 237.89 3.23 238.31C2.95 238.59 2.95 240.14 3.23 240.42C5.06 240.42 13.50 240 19.41 240C25.87 240 32.62 240.42 36.98 240.42C37.41 240.14 37.69 238.73 37.27 238.31C34.87 238.03 32.91 237.89 30.66 237.33C27.00 236.48 26.02 234.80 25.87 228.33C25.59 218.06 25.59 206.67 25.59 194.72ZM50.77 155.91C54.00 156.33 55.83 156.89 57.52 157.31C59.77 157.88 60.47 158.72 60.47 159.70C60.47 161.67 59.20 164.06 56.53 167.72C47.11 179.67 34.17 193.73 27.56 196.27C27.28 196.55 27.14 197.39 27.14 197.53C27.84 197.95 28.69 198.66 29.25 199.50C36.56 209.20 53.58 229.17 59.91 235.08C62.86 237.61 64.97 239.16 66.94 239.72C70.03 240.84 83.39 240.98 89.16 240.42C89.58 240.28 89.72 238.45 89.30 238.17C83.95 238.03 81.42 237.75 79.03 236.63C77.48 235.92 76.22 235.22 74.39 233.67C66.09 226.78 41.20 198.66 38.39 193.17L38.39 192.75C45.42 185.72 55.27 174.61 63.70 165.19C70.03 158.02 72.56 157.03 80.02 155.91C80.58 155.63 80.44 154.08 80.02 153.80C76.08 154.08 72.28 154.22 64.69 154.22C59.62 154.22 55.97 153.80 50.91 153.80C50.48 154.08 50.34 155.63 50.77 155.91ZM87.33 155.91C90.28 156.19 92.53 156.61 94.36 157.17C97.73 158.16 98.30 159.56 98.58 164.77C98.86 169.97 98.86 185.86 98.86 194.58C98.86 208.64 98.86 221.44 98.44 230.02C98.02 235.36 96.33 236.20 94.08 236.91C91.97 237.61 89.30 237.89 86.34 238.17C85.92 238.31 85.92 240.28 86.34 240.42C89.16 240.28 95.06 240.42 96.47 240.42C108.98 240.56 114.47 240.98 122.91 240.98C135.42 240.98 145.55 238.17 154.55 231.98C163.55 225.94 173.11 214.41 173.11 195.14C173.11 182.34 169.03 171.09 160.03 163.22C152.58 156.75 142.31 153.66 130.22 153.66C119.25 153.66 113.06 154.22 103.78 154.22C100.12 154.22 90.98 153.94 87.61 153.80C87.33 153.94 87.19 155.63 87.33 155.91ZM109.97 229.03C109.69 224.53 109.69 209.34 109.69 196.27C109.69 183.89 109.69 164.77 109.97 160.69C110.11 158.72 110.95 158.16 111.52 157.73C112.78 157.31 116.02 157.03 118.97 157.03C130.08 157.03 138.80 158.72 145.12 163.08C156.23 170.95 160.73 183.33 160.73 197.39C160.73 213.42 156.52 222.56 149.91 229.31C143.86 235.36 136.12 237.05 129.23 237.05C122.20 237.05 115.87 236.20 112.78 234.09C110.81 232.83 110.11 230.86 109.97 229.03Z" fill="#ffffff" style="fill: rgb(255, 255, 255);"></path></g><g id="SvgjsG7434" transform="translate(0.0003924853226635605,-0.10000000149011612) scale(2.6)" rel="mainfill" name="outline_container" xmlns:name="outlineContainer_mainfill" fill="#ffffff"><g fill="#ffffff"><path d="M59.1 102.7h-.9c-.2 0-.2.1 0 .1h1.1c.1 0 .1-.1.1-.2zM32.8 102.8h-.6l.6-.2zM79.6 102.8zM79.8 102.7h-.1c.1.1.1 0 .1 0zM55.2 102.8h1.1l-.4-.2h-1zM55.9 102.7zM56.3 102.9zM63.8 103h.2-.2zM64.7 102.9zM22.7 102.6c0 .1 0 .1.5.2h-.5zM25.6 102.6zM21.7 102.9l-.4-.2h.3c.2.3.1.2.1.2zM30 102.8zM82.3 103.2zM100.4 103zM31.3 102.6zM85.9 103zM18.7 102.7zM66 102.7zM56.5 103zM56.3 102.9zM83 102.9h.1-.1zM20.6 102.8h.1-.1zM101 102.7h-.1.1zM81.9 102.6h.1-.1zM44.4 102.6zM.2 80.3zM22.5 102.6zM22.6 102.6zM60.6 102.6zM17.8 102.7h-.1.1zM.1 84.6zM.2 84.2zM.1 84.8v.2-.3.1zM.1 84.6zM69.1 102.8zM79.8 102.9zM79.6 102.8zM85.7 102.8h.2a9.7 9.7 0 0 1-1.3-.3h-1.2c.1-.1 0-.1-.2-.1h-.6l-.7.2c-.1 0 0 .1.1.1h1.3c.2 0 .2 0 .1.1h.6s-.1.1.1.1l.9.3c.2-.1.5-.2.5-.3h.4c-.1-.1-.1-.1-.2-.1zm0 0zM88 103zM52.5 103.1zM59.7 103.1h-.1.1zM1.7 1.1zM1.7 1.2zM19.3 1zM2.6 1.7h-.2l.1.1h.4v-.4z" fill="#ffffff" style="fill: rgb(255, 255, 255);"></path><path d="M100 2.2V1.1l1.8 1.8c0-.2.1-.3.1-.2v-.8a2 2 0 0 0 0-.7V.8h-1.5c.2.1 0 .1-.3.2h-4c.3.1-.1.2-.1.4h-.6c-.1.1-.1.1-.1.2h-2.6l-.4.2h-.9l-.3.3h-.4c.1 0 .1-.1 0-.1s-.1-.1.1-.2.4-.1.2-.2h-.2l.5-.2c.5-.1.5-.1.5-.2H84.6l.3.2h-.6v-.1s-.5-.1-.5-.2l-.3-.4h-6.2V1H75c0-.1.2-.1 0-.2H55.6l-.5.2h-2.3c0-.1.2-.1.1-.2h-1.7c-.7.1-.7.1-.9 0h-4L45.2.2H32.4c-.1.1-.3.1-.2.2H32c-.2 0 0 .1-.1.1l1.4.2-.4.2h-1.3l.4-.2h-2.1l-.6-.2h-5.8v.1s-.2.2-.2.3h-.7c-.1.1-.2.2-.6.2h-4.4V1h.9l-2-.2h.4c.1 0 0 0 0-.1h-3.8c-.1.1-.5.2-.5.3l-.4.2h-1.4c-.3-.1-.2-.1.2-.1h.2l-.3-.7H5.5l-.6.2H6c.1.1.1.1-.2.1h-.4l-.6.2h-.4c-.4.1-.4.1 0 .2h.2l-.4.2h-.6l-.2.2h-.5v.6h4.7c.1 0 0 .1 0 .1h7.6l.6-.2h9.8c.1.1.5.2 1.2.2h11.5s.2-.1.1-.1h.4c.2 0 .2.1 0 .2h3.4c.4-.1.2-.1.3-.2h8.9s-.1.1 0 .1h3v-.1s.2-.2.8-.1h1.6a.1.1 0 0 1 0 .1s-.1.1.1.1h32.7c0 .1.5.2.9.3h.7s.1 0 0-.1h4.3l1.7-.2c.3-.1.3-.1-.1-.2H97l.3-.2h.5c.3.1.5.2.1.3-.1.1.5.2.9.2h1.3v-.1zm1.6-.2zm-.5-.4h.2v-.4h.2l.3.3s.1-.1.1.1a1.5 1.5 0 0 1 0 .2c0 .1-.1 0-.1-.1a.5.5 0 0 1 0-.2h-.6zm-95.6.8h.1c.1-.1 0 0-.1 0zM8.2.8zm-1.6.7zm.5.8zm2.4-.5h-.1c.1-.1 0-.1-.2-.1h-.1l-.6-.2H6.9c-.3-.1-.1-.2.5-.2H9c-.1.1-.1.2.1.3s0 .2-.1.3h.5zm3-.7zm-1.3.9zm2.2-.2h-2 .8c.4 0 .5 0 .3-.1h.9l.4.2zm.8-1zm2 .9zm.1-.9zm3 .9zm2.6-.4zm-.5-.2zm-1.1.1zm2 1.3h-.9.9zm-.4-.3zm.5-.3h-.9l-.6-.2v-.1a8 8 0 0 1 1.8-.1c0 .3 0 .4-.4.4zm.9-.3zm.8-.9zm.7.3c-.1 0-.1 0 0 0zm.9.2zm-.2 1.2c-.2 0-.2 0 0-.1zm.7 0zm.8.3zm.9-1.2h-.5v-.1.1h.5zm4.7.2zm1.3-1zm.5 1.9h-.3c-.1 0-.1-.1 0-.1h.3zM37 .8zm.7.6zm1.9-.8zm3 1.6h-.1l.2.2zm.3-1.2zm.4-.3h-.5l.6-.2h.6c.2 0 .2.1 0 .1zm2.9.8zm.1-.4h-2.2c-.5 0-.6 0-.4-.1s.4-.1.1-.2h1.3l.7.2h.5zm.9.2zm.4-.5H47h.7zm.5.5zm2.6.3c-.3.1-.2.2-.1.3H50v-.3h.6zm.3-.3h-.5l-.9-.3h.6l.5.2h.3c.2.1.2.1 0 .2zm4 1.1h-2c-.1 0 0-.1.1-.1H53c-.1 0-.1-.1.1-.1h.3c.3 0 .7 0 .7.1h.9zM61.2.7zm-3.5.1zm1.3.4c-.3-.1-.3-.1.1-.2h.3l.2.2H59zm.8 1.4zm0-.3h-.3c-.1 0-.2-.1-.1-.1h.4zm.5-1.3zm.9.6zm0-.5zm2.2-.1zM73.6.7zM66 .6zm-.6 1.6zm.9.3zm.3-1.4l-.6.2h-.6c-.1-.1-.1-.1.2-.1h1zm1.7.6zm0-.7h-.7l-.9-.1h2.9c.2.1-.1.1-.2.2H69h-.7zm4.3.3h-.5s-.3.1 0 .1 0 .2-.1.3h-.4l-.3-.2h-1.9c-.3 0-.4-.1-.2-.1H69c-.3 0-.3-.1-.1-.1H71l1.3-.2h2.1l-1 .2zm1.2.5zm1.1.2zm1.1.4zm.6-.3zm4.1-.3h-.8c.1 0 .1-.1 0-.1h-.4c-.2 0-.2-.1-.1-.1h-.7c-.5-.1-.5-.2.1-.2H80l-.2.2h.5c0 .1.3.2.4.3s0-.2-.2-.1zm2.4-.6zm-.8-.1h.6zm.7 1.6zm1.3-1.1c.1 0 .1.1 0 .1a5.2 5.2 0 0 1-1.7 0c-.1-.1 0-.1.1-.2s.1-.1-.2-.1h1.8zm1.7-.2zm.4-.2h.1zm1.6-.1zm11.2.7h-.1v-.1h.1zM2.6 1.2l-.3.3zM2.1 1.6l.2-.2h-.2zM1.9 2.2c.1.3.1.3.2 0v-.3l-.2.2zM1.5 1.1z" fill="#ffffff" style="fill: rgb(255, 255, 255);"></path><path d="M2.9 1.5v-.3l-.3.3h.3zM2.1 1.7a.9.9 0 0 1 0 .3l.5-.5h-.3zM2.7 2.1V2zM2.6 1.4a1.6 1.6 0 0 0 0-.2v.2zM2.6 1.5zM2.1 1.6l-.2.2.2-.2zM3.5 1.7h-.6v.2zM32.5.3zM101.7 2.9zM100.1 2.2zM2 1.4v-.3.2zM101.4 1.3zM1.6 1.3zM102.1 10.3h-.1s-.1 0-.1.1v.6c0 .4-.1.5-.2.3v-.2a6.1 6.1 0 0 1 0-1.2c0-.3.1-.3.1 0s.1.4.2.5v-2a7 7 0 0 1 0-.8V6.3v-.4a1 1 0 0 0-.1.3 14.4 14.4 0 0 0 0 1.5c0 .2-.1.3-.2.1a2.3 2.3 0 0 1-.1-.9 2.8 2.8 0 0 0-.1-.8v-.2a3.2 3.2 0 0 1 0-.7c0-.2.1-.3.2-.1v.5c0-.4.1-.5.1-.9s.1-1.1.1-1.6h-1.6a11.4 11.4 0 0 1 .1 1.6 2 2 0 0 0 .1.8 1.7 1.7 0 0 1 0 .6v.3a3.8 3.8 0 0 0-.1 1.5v.7a3.1 3.1 0 0 1 0 .3v.2a1.5 1.5 0 0 0-.1.7 4.8 4.8 0 0 1 0 1.1v.1a.7.7 0 0 1 0 .1c0 .1 0 .1 0 0v-.3a6.3 6.3 0 0 0-.1 1.4c0 .3 0 .7.1 1a13.4 13.4 0 0 1 .1 1.6v.2c.1 0 .1.1.2.5v1.9c0 .3-.1.3-.1.3s-.1.2-.1.3a3.5 3.5 0 0 0 0 .8l.2.7a4.1 4.1 0 0 1 .1.8l-.2.7a3.5 3.5 0 0 0-.1 1.1 2.3 2.3 0 0 1 0 .6v.3a3.5 3.5 0 0 0-.1.9v1.5a18 18 0 0 1 0 1.9 3 3 0 0 0 .1.9c.1.3.1.9.2 1.1v.2l-.3.2h-.3a6.8 6.8 0 0 0-.1 1.3v.9c0 .4-.1.7-.1 1.2v1.3a2 2 0 0 0 .1.6l.3.9a4.3 4.3 0 0 1 0 .7c0 .2 0 .3-.1.3s-.2.1-.2 1.1v.7a4.3 4.3 0 0 1-.1 1.3 3.6 3.6 0 0 0-.1.8c0 .5-.1.9 0 1.4s0 .9 0 1.4a1.6 1.6 0 0 0 .1.7h.1a.9.9 0 0 1 .1.4v.5a2 2 0 0 0 .1.6h.1s.1-.2.1-.4v-.9c0-.1 0-.3.1-.2s.1 0 .1.3a4.9 4.9 0 0 0 .1.9.8.8 0 0 1 0 .4c0 .1-.1.3-.1.2s-.1 0-.1.2v.7h-.2v-.3c0-.1 0-.1-.1.1a9.8 9.8 0 0 0 0 1.4 5.9 5.9 0 0 0 .1.9 3.7 3.7 0 0 1 .1 1.2v1h.2v.4c0 .2-.1.4-.1.4v-.8h-.1c-.1-.2-.1-.1-.1.1v.9a6.7 6.7 0 0 0 0 1.2v.5a6.3 6.3 0 0 1-.2 1 5.5 5.5 0 0 0 0 1.6v.4a3.7 3.7 0 0 1 .1 1.1c0 .4-.1.8-.1 1.1a12 12 0 0 0-.1 1.8v.9c0 .2 0 .3.1.2h.1s.1.1.1.3v2.2a4.8 4.8 0 0 1 0 .5 2.7 2.7 0 0 0 0 .9v.8a3.7 3.7 0 0 1 0 .5 1.1 1.1 0 0 1-.1.5v-1h-.1v.2a5.2 5.2 0 0 0 0 .9 4.7 4.7 0 0 1 0 1 5.8 5.8 0 0 0 0 1.6v.5a2.9 2.9 0 0 1 0 .8V74.1a7.8 7.8 0 0 0 .1 1.6 5.3 5.3 0 0 1 0 1.7 14.3 14.3 0 0 0-.1 2.3c0 .7 0 1.3.1 1.9a12.4 12.4 0 0 1 0 2V85a13 13 0 0 1 0 1.9 10.1 10.1 0 0 0 0 1.9 6.6 6.6 0 0 1 0 .8 21.1 21.1 0 0 0 0 2.3 11 11 0 0 1 0 1.6 11.9 11.9 0 0 0 0 1.7c0 1 .1 2.1.1 3.2s0 1.2.1 1.7v1.3h-1.2c.3-.1.4-.1.1-.1h-.4l-.9-.2h-3.7s.1.1-.1.1h-3.3l.3-.2h1.4c.1 0 .1-.1-.1-.1h-3.7c.1.1-.1.1-.5.1h-.8c-.2.1-.1.1-.1.2h.1c-.2 0-.2-.1-.1-.1h.6l.9.2-.6.2h2.4c.5.1.8.1.6.2h2.1l1.3.2h4.7a.5.5 0 0 0 0-.2h1.3c0-.1-.1-.1.2-.2h.1c.2-.1-.1-.1-.4-.2l.7-.3-.7-.2v-.6l.2-.8a17.7 17.7 0 0 0 .3-2.9c0-1 .1-2.1.1-3.1v-4.3-2.3a9.3 9.3 0 0 1 0-1.5 11.9 11.9 0 0 0 0-2.1c0-.3 0-.6-.1-.8a16.5 16.5 0 0 1-.1-1.9 6.5 6.5 0 0 0 .1-1.4 13 13 0 0 1 .1-2 8.3 8.3 0 0 0 .1-1.2v-1a25.3 25.3 0 0 0 0-2.6 9.7 9.7 0 0 1 0-1c0-.4 0-.5-.1-.5s-.1-.1-.1-.5v-4.4l.2-1.1a7.1 7.1 0 0 0 .1-1c0-.5 0-.7-.1-.7h-.1v-.2a3.7 3.7 0 0 1 0-.5v-.3a5.4 5.4 0 0 0 .1-2.1 3.1 3.1 0 0 1 0-.5 7.7 7.7 0 0 0 0-1.4 5.6 5.6 0 0 1 0-.7v-1c0-.3-.1-.5-.1-.4v.3c0 .2-.1.3-.1.2v.2c-.1.1-.1 0-.1-.2v-.2a2.2 2.2 0 0 1 0-.7 3.5 3.5 0 0 0 .1-1.2v-.8a1.3 1.3 0 0 1-.1-.5v-1.3-.7a4.6 4.6 0 0 1 0 .7 7.2 7.2 0 0 1 0-.7h.1a.8.8 0 0 1 0 .3c.1-.2.1-.2.2-.2s0-.5 0-.8 0-.8-.1-1.2a1.5 1.5 0 0 1 .1-.8h.1c.1 0 .2-.4.2-.9V47a.9.9 0 0 1-.1-.6v-.2a3.7 3.7 0 0 1 0 .6h.1a1.4 1.4 0 0 0 .1-.6 9.3 9.3 0 0 0 0-1.2 14.1 14.1 0 0 1-.1-2.2 1.6 1.6 0 0 0-.1-.6h-.1a2.6 2.6 0 0 1-.1-1 6.6 6.6 0 0 0 0-1.9c-.1-.5-.1-1.1-.1-1.7a1.1 1.1 0 0 1 0-.4.6.6 0 0 0 .2-.4c0-.2.1-.2.1-.1s.1 0 .1-.3a3.7 3.7 0 0 0-.1-1.5l-.2-.5v-.5.5h-.1v-.3c0-.2 0-.3.1-.2h.1V32c0-.6 0-.7-.1-.8h-.2c-.1.1-.1-.2-.1-.5v-1.6h.1a1.4 1.4 0 0 1 .2.7 1.2 1.2 0 0 0 .1.5v.4a1.3 1.3 0 0 1 .1.4c0 .6.1 1.1.1 1.6h.1c0-.6-.1-1.2 0-1.9a1.8 1.8 0 0 0 0-.4 2.7 2.7 0 0 1 0-.5 5.1 5.1 0 0 0 0-.8 9.3 9.3 0 0 0-.1-.9c-.1.4-.1.4-.3.4s0-.4 0-.5a2.8 2.8 0 0 0-.1-1 1.3 1.3 0 0 1 0-.5 2.4 2.4 0 0 1 .2-.9h.1a1.2 1.2 0 0 0 .1-.6v-.7a2 2 0 0 1 0-.6c0-.1.1-.1.1 0v.5c0 .1.1 0 .1-.2v-.5a2.4 2.4 0 0 0-.1-.8c0 .1 0 .2-.1.1v-.2h-.2c-.1 0-.1-.2-.1-.5v-1.7-.5a1 1 0 0 1 .1-.4 1.8 1.8 0 0 0 .1-.5v-.6 1h.1v-.8c0-.2 0-.7-.1-1s0-.7 0-1v-.6c0-.3.2-.1.3-.4s.1-.1.1 0 .1.2.1 0a2 2 0 0 0 0-.6c0-.5-.1-1.1-.1-1.6v-.3a.8.8 0 0 1 0-.4c0-.1.1-.1.1.1v.7a.6.6 0 0 0 .1-.4 10.6 10.6 0 0 1 .1-1.6 7.5 7.5 0 0 0 0-1.3zm-1.7-6.9c0 .2-.1.1-.1 0zm0 20.7a1.2 1.2 0 0 1 0-.2c0-.2 0-.2 0 0a1.1 1.1 0 0 1-.1.2zm0 9.7v-.3-.3.3c-.1.1-.1.2-.1.3zm.1-2.7V31zm-11.8 69.6zm-.3.2zm.3.6zm.6.2zm3.9-.5zm.5.9h-.2.2zm.7.2zm.5-.2zm1 .3h-.3c-.3 0-.4-.1-.3-.1h.6zm.7-1.1zm.8-.1h-.5c-.1 0-.1-.1.1-.1h.4zm1.1 1.3zm1.2-.1zm.8-41.8V60c0-.1.1.1.1.2s0 .2-.1.1zm.8-1.3a1.1 1.1 0 0 1 .1.6v.2-.4a2.2 2.2 0 0 1-.1-.6zm-.2 2.4v.2a1.9 1.9 0 0 1 0 .3 1.7 1.7 0 0 1 0-.4zm0 11.9c0-.1.1 0 .1.3a1.5 1.5 0 0 1 0 .3c0 .1-.1-.1-.1-.2zm-.2 5.4V78.7zm0-19a2.6 2.6 0 0 1 0 .9v-.8zm.4-21.6s.1.1.1.3v.3a4 4 0 0 0 0 .9 2.6 2.6 0 0 1 0 .7v-1.9a1.3 1.3 0 0 1-.2-.6zm-.3-23.8v.2a3.3 3.3 0 0 1-.1 1.2l-.2.4v-.2a3.1 3.1 0 0 1 0-.3 6.4 6.4 0 0 1 .1-1zm.1 7.6v.1a1.9 1.9 0 0 1 0-.3c0-.2 0-.4.1-.4s.1.2.1.4zm-.3-10.5l.2.4v.5s-.1.1-.1-.1v-.7zm-.1 0v.1zm.2 22.3v-.8a4 4 0 0 1 0-.5v-.2c0-.1.1.1.1.2a7.8 7.8 0 0 1 0 1v.3zm.3 5.5a1.6 1.6 0 0 1 .1.6V40s-.1-.1-.1-.4v-.5.1h.2zm.1-12.4c-.1-.2-.2-.1-.3-.5v-.2a.5.5 0 0 1 .1-.3h.1v-.2c.1-.1.2.2.2.8s-.3.1-.3.1zm.2-15.9l-.3-.3zM61.2 1.2zM1.6 1.2zM1.9 1.2l-.2.2zM101.5 1.2a.8.8 0 0 0 0-.1zM101.1 53.7zM43.7 2.6zM1.6 1.2zM1.6 1.4zM101.8 32.9zM24.1.6z" fill="#ffffff" style="fill: rgb(255, 255, 255);"></path><path d="M1.4 2.6l.4-.4v-.3l-.4.4h.1s-.1 0 0-.1h-.1l.4-.4a3.7 3.7 0 0 1 0-.5H1.5v.3c0 .1-.1.2-.1.4v1.1c0 .2 0 .4-.1.4h-.2v.4H1a.6.6 0 0 1 0-.3h.1v-.2a2.3 2.3 0 0 0 0-.3l-.2.5a2.9 2.9 0 0 0 0 .8c.1.5.2.8.4.5.1-.2.1-.2.2.1h.1c0-.1.1-.1.1-.4a10 10 0 0 1 .1-1.2 6.8 6.8 0 0 1 0 1.4V5a1.8 1.8 0 0 1 0 .6h.1c-.1.1-.2-.1-.3-.8v.8c0 .6 0 .7.2.7h.1a12.5 12.5 0 0 0 .3 1.9v-.3c0-.1.1.1.1.3v1.3a2.1 2.1 0 0 1 .2.9v.3s.1-.1.1-.2V9.1c0-.1-.1-.2-.1-.1s0 .3-.1.2a1.5 1.5 0 0 1-.1-.5v-.6l.2-1.2a1.2 1.2 0 0 0 0-.4 2.6 2.6 0 0 1-.1-.9v.3c.1.2.2 0 .2-.4s.1-.8 0-1.2 0-.9 0-1.4H1.4zm.6.8v.3zm.3 2.5v.4a2.1 2.1 0 0 0-.1-.8 2.1 2.1 0 0 1 0-.3h-.1v-1h.1v.9c.1-.1.2-.1.2.1v-.1a7.1 7.1 0 0 0-.1.8zm.2-1.5l-.2-.9h-.1a1.2 1.2 0 0 1 0-.3l.3-.2s.1.2.1.4zM1.5 1.2zM101.7 1.7zM1.6 1.4zM1.5 1.6h-.1.1z" fill="#ffffff" style="fill: rgb(255, 255, 255);"></path><ellipse cx="74" cy="2.2" transform="rotate(-84.1 74.058 2.156)"></ellipse><path d="M79.1 1.5zM1.4 1.3zM1.4 1.6zM1.4 1.2zM1.6 1.4zM1.4 1.4zM.9 66.9zM.2 80.3zM1 45.4zM1.1 76.1zM.9 73.3zM42.8 100.5zM.7 66.1zM2.5 101.2c.1 0 0 .1 0 .1h.1v-.2h-.1zM2.2 101zM53.1 101.9zM41.5 100.7zM52.4 101.9h-1.9c.4 0 .5-.1.4-.2h2c.1 0 .1-.1 0-.1h-.8c-.2 0-.1-.1.1-.1h1.5c-.5 0-.9-.1-.8-.2h-1a6.5 6.5 0 0 0-2 .3h-3.4c-.3 0-.7 0-.7-.1h-6.6c-.1.1 0 .2.1.2h-.6c-.1 0 0-.1.1-.1H28.3c.3 0 .2.1-.1.1h-.8c.1 0 .1.1 0 .1h-2.6c-.1 0-.1 0 0 0h-2.6l-.8-.2h-3.7c-.4 0-.4 0-.3.1h-1.3c.4-.1.6-.2.6-.3h-4.4a8.1 8.1 0 0 1-2.3 0H2.6v.8h1c-.1 0 .1.1-.2.1h-.8l.3.2h-.6c0 .1.1.1.6.1h1.2c-.1-.1.2-.2.4-.3h.7v.2h1.3c-.1.1.1.2.1.3s-.1.1.1.1h.9c0-.1-.1-.2 0-.4s-.2-.1-.7-.1H5.7c.1-.1.1-.2.6-.2-.1 0-.1 0 0 0-.1 0-.1 0 0 .1h.5c.3 0 .4 0 .4-.1h2.9c-.7.1-.7.1-.3.3h1.1c.1.1.1.1-.1.1H12l1.2.2h.7l.2-.2h2.5c.3 0 .4.1.2.2H16l-.6-.2-.3.2h2l.5-.3c.1-.1.1-.1.1-.2H20l.5-.2h.5c.3 0 .4.1.2.2h2.1c.9 0 1 .1 1.1.2a.2.2 0 0 1 0 .1h.6c-.1 0-.1-.1.1-.1h1.3c-.1 0-.1-.1.1-.1s.7 0 .5-.1l1.2-.2c.1.1-.1.2.3.3h1.3c-.2 0-.2.1.1.1h.7v-.2h-.1s-.1-.1 0-.1.2-.2.1-.3h.8l.5.2c.2 0 .4.1.2.2h.8v.2h3.9l.4-.3c-.4-.1-.6-.2-.3-.3s.1-.1.1-.2h-3l-.4-.2c-.1 0 0-.1.1-.1h1.8c-.1.1 0 .1.2.2l.7.2c.1-.1.4-.1.1-.2s-.1-.1.1-.1h4.1c.2 0 .3.1.1.1h.2c.1.1.1.2.1.3h1.1a.4.4 0 0 1 0 .2H44l1.2.2h.5a.6.6 0 0 0 0-.2h-2.5c-.5 0-.7-.1-.4-.2l.9-.2h1c.3.1.5.2.3.3h.6c.4 0 .6-.1.6-.2h-.1c-.2-.1 0-.1.1-.2h.5v.2h.6c-.2-.1-.2-.1 0-.2l.3-.2h.7l-.2.2h4.1zm-.8-1.2h.3c-.1 0 .3.1.2.1h-.4s-.1-.1-.1-.2zm-47.7-.1zm1.1.1zm1.6.1zm1.5.1h.2v.2zm1 .3zm6.6.3h-2l-1.3-.2.9-.3h.5l-.2.2h3.2c.1.1-.4.2-1 .2zm3.9-.7zm2.3.5zm.8.1zm.4.6zm.5-.5h-.3v-.1h-.1c0-.1-.1-.1-.5-.1l.3-.2h-.3a9 9 0 0 1 2.1.1c.1 0 .1.1 0 .1zm1.5.2zm5.3-.3c-.3 0-.4.1-.4.2h-.4l-.7-.2h1.3c.4-.2.5-.2.3-.2zm1-.2zm3.7.7zm-.3.2zm-1.2 0zm2.8-1zm2.4.2zm1.3 0h.1zm1.2-.3h-.2c-.1 0-.1 0 0 0h.2zm1 .7zm2.5-.2l-.4.2h-.3l-1-.2h-.6c-.4 0-.5-.1-.3-.1H44l1 .2h.1zm1.3 0zm.2-.2zm1.2 0zm1.3.3h-.1zm.7.6zM.8 100zM.1 84.9zM7.7 101.3zM2.5 101.2zM2.6 101.2zM37.1 101.7zM.2 84.2zM41 102.1zM1.6 49.2zM24.3 102.2zM1 100zM2.3 101.6c-.1-.1-.1-.1 0-.2h.1l-.2-.2h-.1c-.1 0 0 0 0-.1l-.7-.7h1.2v-1.2-.5a2.5 2.5 0 0 0-.1-.7l-.2-.3v.3a.5.5 0 0 1 0 .3V98a2.6 2.6 0 0 0 0-.6v-.6a10.6 10.6 0 0 1 .1-1.4.8.8 0 0 1 0-.3v.1c-.1.2-.2.1-.3.1a2.1 2.1 0 0 1 0-1.3v-.4c.1.2.1.2.2 0V93a5 5 0 0 1 .1-1.3c0-.2.1-.2.2-.3a1.1 1.1 0 0 0 .1-.7 8.5 8.5 0 0 1 0-1.3 7.2 7.2 0 0 0-.1-1.8 5 5 0 0 1 0-.6v-.9c0-.2 0-.3-.1-.3h-.2s-.1-.2-.1-.5a3.1 3.1 0 0 1 .1-.8l.2-.3v-1a2.1 2.1 0 0 0 0-.3c0-.4 0-.9-.1-1.3a7.4 7.4 0 0 1 0-.8 4.3 4.3 0 0 1 .1-.8 3.1 3.1 0 0 0 0-.3c0-.1-.1-.4-.1-.3v.2a2.7 2.7 0 0 1-.1.7v-.2c-.1.1-.1-.1-.1-.3v-3.1h.1v-.3h.1a1.4 1.4 0 0 1 0 .5v.2s-.1-.1-.1-.4h-.1a3.2 3.2 0 0 0 0 .7l.2.9.2-.8a13.4 13.4 0 0 1 0-1.6V73a.6.6 0 0 0-.1-.3.6.6 0 0 1 0-.5 2.4 2.4 0 0 0 0-.3v-.3l-.2-.2a1.3 1.3 0 0 1 0-.4v-.2h.2v-.2a1.7 1.7 0 0 0 0-.3V70a2.1 2.1 0 0 0 .1-.8v-1a1.4 1.4 0 0 0 0-.6l-.1-.6a1.5 1.5 0 0 0-.2-.8v-.7a1.8 1.8 0 0 0 0-.7v-1.3h-.1a9 9 0 0 1-.1 1.3v-.5a8.8 8.8 0 0 0 0-1.2 2.1 2.1 0 0 1 .1-.9l.2-.5a.5.5 0 0 1 .2-.3c.1 0 .1-.2.1-.4a26.4 26.4 0 0 0 .1-2.8 1.9 1.9 0 0 0 0-.4 1.5 1.5 0 0 1 0-.7c0-.3.1-.7.1-1.1a6 6 0 0 0 0-.9v-.5a9.3 9.3 0 0 1 0-1.5 10 10 0 0 0 0-1.6V51a1.8 1.8 0 0 1 0 .8v-1H3V50c0-.3 0-.5-.1-.5h-.5a1.9 1.9 0 0 1 0 .5 3.2 3.2 0 0 1 0-.3h.1v-1a.9.9 0 0 0 0-.4v-.6c0-.3-.1-.4-.1-.3s-.1 0-.1-.4v-1.1.1c0 .1-.1.1-.1-.1v-.4c0 .1 0 .4-.1.3s-.1-.2-.2.1a2.1 2.1 0 0 1 0-.3v-.7c0-.2 0-.7-.1-.6l-.2.2s-.1-.3-.1-.5v-.3h.1l.3.2c.1.1.2.3.2.9v-.2V43.7c.1 0 .1.3.1.5v1.7h.2c.1-.6 0-1.3 0-1.9s0-.5.1-.5.1.1.1.1a1.1 1.1 0 0 0 .1-.6c-.1-.6 0-1.2 0-1.7a7.5 7.5 0 0 0 0-1.5c-.1.3-.1-.1-.2-.3a1.9 1.9 0 0 1 0-.3v-.3a1.6 1.6 0 0 0 0-.6 1 1 0 0 1-.1-.3c0-.3-.1-.2-.1-.4s-.2-.7-.3-.6-.1.2-.2.1-.2 0-.3.1l-.2.3v.8c.1.3.1.6.2.4s.2-.2.3.1.1 0 .1-.1.3-.4.4-.3a1.6 1.6 0 0 1 .1.8v.9-.9h-.3V41c0 .1 0 .3.1.3s.1.1.1.3v.9l-.3-.2v-.5a3.4 3.4 0 0 1-.1-.8v-.5c0-.2 0-.2-.1-.1v.2c0 .6 0 1.2-.1 1.7s0 .8-.2.6h-.2v.3a5.3 5.3 0 0 1 0 1.7c0 .1-.1.1-.1 0a2.7 2.7 0 0 0-.1-.6c0-.1 0 0-.1.1s0 .9 0 1.3v.2a11.4 11.4 0 0 1 0 1.8 1.4 1.4 0 0 0 0 .3 3.9 3.9 0 0 1 .1.9v-.7h.1a2.9 2.9 0 0 1 0 .6v.2c0-.1.2-.1.2.2v.2c-.1.4-.1.7-.2.6L1 51.2l.2-.3c.1.3.1.3.2.2 0 .4 0 .9-.1.8s-.2.3-.3.1-.1.1-.1.3v.3c-.1-.4-.2-.5-.3-.4H1a1.5 1.5 0 0 1 0-.3.9.9 0 0 1 0-.2h.1c.1 0 .1-.2.1-.4l-.2-.7H.7l-.2.3H.4a.8.8 0 0 1 0-.4v-.2c.1.1.1 0 .2-.1a.6.6 0 0 0 0-.3v-.2H.4v.2c-.1.1-.1.4-.2.8a3.6 3.6 0 0 0 0 .5v.8a1.5 1.5 0 0 0 .1.3c.1-.1.3.2.4.3h.1c.1.5.2.7.3 1.2s.1.4.2.1.2-.4.3 0-.1.9-.1 1.3a2.7 2.7 0 0 0 .1 1 3 3 0 0 1 .2 1 3.3 3.3 0 0 0 .1.6c0 .2.1.2.2 0s.1-.1.1.1H2c0-.4.1-.6.1-.5h.1a1 1 0 0 1 0 .2c-.1.3-.2.3-.2.1a9 9 0 0 1-.1 1.3 2.2 2.2 0 0 0 0 .8H2l.2-.3v.2a1.8 1.8 0 0 1 0 .3c0 .3-.1.6-.2.6s-.3.3-.3-1.2v-.3h.1v1.6a2.8 2.8 0 0 0 .1.9v1.5h-.1v-.8c0-.3-.1-.5-.1-.3l-.2.5c-.1-.4-.1-.4-.2 0s-.1.2-.2.1-.1.1-.1.2v.4a1.4 1.4 0 0 1-.1.8v.3a1 1 0 0 1 0 .4v.2c-.1-.1-.1.1-.2.2a1.5 1.5 0 0 0 0 .6v.4c0-.2 0-.1.1 0a2 2 0 0 1 .1.7l.2-.2a3 3 0 0 1 0-.7c0-.3.1-.5.1-.3a3.2 3.2 0 0 1 .1.7v.7c.1.4.1.4.2.4v.3a1.3 1.3 0 0 0-.3.6 1.5 1.5 0 0 0 0 .3v.3c.1.1.2.2.3.1l.3-.2.1.5v.7a3.3 3.3 0 0 0 .1 1.2v.2l-.3.2s-.1-.2 0-.4v-.9a1.4 1.4 0 0 0 0-.5h-.1c0 .3-.1.3-.1.2s-.1 0-.1.4v.3c0 .2 0 .4-.1.3l-.2-.3c-.1-.1-.1 0-.1.2v2.2c.1 0 .1.2.1.5s.1.6.1.6l.2.2a1.4 1.4 0 0 1 0 .3 5.6 5.6 0 0 0 0 .8 6.8 6.8 0 0 1 0 1h-.2s-.1-.1-.1-.4a.7.7 0 0 1-.1-.4v.3H.7c-.1-.1-.2.2-.3.4l.2.4v.8c0 .7 0 .7-.1.9s0 .1 0 .3v.5c.1 0 .1 0 .2-.2 0 .4.1.7.1.5s.1 0 .2.1.2-.2.1-.7v-.3a.9.9 0 0 1 0-.2H1v.4a1.2 1.2 0 0 1 .1.5 3.3 3.3 0 0 1-.1 1c.1 0 .1.1.1.4s0 .3-.1.3-.1 0-.1.5 0 .3-.1.3-.2.2-.2.1-.1.2-.1.4 0 .5.1.5v-.2.2h.2v.3l-.2.5v-.2a1.2 1.2 0 0 1 0-.4 2.2 2.2 0 0 0 0-.6c-.2-.8-.3-1.5-.4-2.2a1.1 1.1 0 0 0 0 .7 2.7 2.7 0 0 1 .1.7.9.9 0 0 1-.1.5 1.7 1.7 0 0 0 0 .5v.3a1.4 1.4 0 0 1 0 .8v.4s.1.1.1.3a.7.7 0 0 1-.1.3v-.3.3H.1V86a2.4 2.4 0 0 1-.1.7 12.9 12.9 0 0 1 0 2.1A6.4 6.4 0 0 0 .1 90a11.3 11.3 0 0 0 0 2v.2c0 .3.1.4.1.1s.2-.9.2-1.5.1-.1.1-.1V90c0-.2.1-.3.1-.1v.3a7.1 7.1 0 0 0 .2 1.6 6 6 0 0 1 .1.9H1v2.2A6 6 0 0 1 .9 96v4c.1 0 .1-.1.2-.7h.1c0 .2.1-.1.1 0a1 1 0 0 1 .1.5.9.9 0 0 1 0 .2c-.1-.4-.2-.3-.3-.1v.4c.1.3.2.6.3.4a.5.5 0 0 1 0 .3v.2h-.1c-.1-.2-.1-.5-.2-.4v.7h1.2zm0-13.3h.1V88.5a1.2 1.2 0 0 1-.1-.2zM2.4 74a1.5 1.5 0 0 1 0 .3v.2a1.2 1.2 0 0 1-.1-.5zm-.1-9.7zM2.4 42a.4.4 0 0 1 0 .2h-.1V42zm-.6.5c0-.1.1-.1.1.1v.5s-.1-.1-.1-.3a1.5 1.5 0 0 1 0-.2zm-.2 5.1h-.1l-.2-.5h.1c.1 0 .1.1.1.4v.1h.1zm.1 2.8v-.2.3zm.3 5.3v.2s-.1-.2-.1-.4a2.3 2.3 0 0 1 0-.6c0-.1.1-.1.1.2v.6zm0 1.4zm.5-.4v.3c0 .1-.1.1-.1-.1v-.4c0-.3.1-.6.1-.5a1.2 1.2 0 0 1 0 .8zM2.3 48v.3c0 .2-.1.4-.1.4s-.1-.3-.1-.5.2-.2.2-.1zm-.2 3c0-.2.1-.3.1-.2v.4a3.2 3.2 0 0 1 0 .4.9.9 0 0 1-.1.4h.1c-.1.1-.2-.5-.1-1zm.2 4.1h-.1v-.8l.2-.2c.1-.2.1.1.2.4zm-1.2 9.6a2.4 2.4 0 0 1 0-.3 3.2 3.2 0 0 1 0-.6.7.7 0 0 1 .1-.4c.1-.1.2.1.3.6a1.5 1.5 0 0 0 0 .4c-.2.5-.3.4-.4.3zm.6 3.4v-.7c.1-.1.1-.1.1.3a1.4 1.4 0 0 1-.1.4zm0-1.9c-.1.1-.1-.3-.1-.6a2.1 2.1 0 0 1 0-.3v-.4a.6.6 0 0 0-.1-.4l-.2-.2V64c.1.1.2 0 .4.2a1.8 1.8 0 0 1 .1.7zm-.6 6a.6.6 0 0 1 0-.3v.2zM.2 85zm1-6.8a1.2 1.2 0 0 1 0-.4v.5zm-.1 10v-.1zm.1 3.5zm-.1-9zm0 13.5zm0 2a2.2 2.2 0 0 1 0-.3l.2.4c-.1.1-.2 0-.2-.1zm.7 1.4a1.6 1.6 0 0 1 0-.3h.1v.2c-.1.1-.1.2-.1.1zm.1-6.2h-.1a.4.4 0 0 1 0-.2.7.7 0 0 1 .1.1zm-.1-1.2h-.1s0-.1-.1-.5v-.5c0-.1.1 0 .1.2a1.4 1.4 0 0 1 .1.8zm.4 4.4v-.2h.2zm-.2-.9a1.1 1.1 0 0 1 0 .1.2.2 0 0 1 0-.1zm.2-6s.1.2 0 .4 0 .6-.1.5-.2-.1-.3-.2-.1.1-.1.3a3.9 3.9 0 0 0 0 .5v.5h-.1s-.1-.2-.1-.4a1.5 1.5 0 0 1 .1-.6h.1v-.4a4.1 4.1 0 0 0 0-.8v-2.6h.1v1.3a6.3 6.3 0 0 1-.1 1c0 .5 0 .6.1.6H2zm-.7-7.2v-.3c0-.1.1 0 .1.2a.8.8 0 0 1 0 .4s-.1-.1-.1-.2zm.1 2.6zm.4-1.5c0 .3-.1.6-.1.5a1.7 1.7 0 0 1 0-.6c0-.8 0-.8.1-.9v-.2.2q-.1.4 0 1zM1.9 82c0 .1-.1.1-.1 0a1.7 1.7 0 0 1 0-.5v-.7c0-.3.1-.2.1 0H2a4.9 4.9 0 0 1-.1 1.3zm.2-12.6v1.1a.8.8 0 0 1 0-.1c0-.2 0-.2.1-.1v-.5h-.1v-.3zM2 74.9c.1 0 .1.2.1.4a1.7 1.7 0 0 1 0 .5v-.2a2 2 0 0 1-.1-.7zm-.6 3.6v-.3a.7.7 0 0 1 0 .1h.1v.1zm-.1-5.3a1.4 1.4 0 0 1 0 .4 2.5 2.5 0 0 1 0-.3zm0 7h.1c.1.4.1.7.2.7 0-.5 0-1.1.2-1.1a1.7 1.7 0 0 0 0-.7v-.3a1.8 1.8 0 0 1 0-.7v-.3a1.6 1.6 0 0 0 0-.3v.5c-.1.3-.2 0-.2-.4v-.5a7.1 7.1 0 0 1 .1-1.9h.1v.5a1.3 1.3 0 0 0 0 .6v.2l.2.2a1.2 1.2 0 0 1 0 .3 7.3 7.3 0 0 0-.1.8v1.4a2.9 2.9 0 0 1-.1 1.1 2.4 2.4 0 0 0-.2.7c0 .2-.1.2-.1.1 0 .7-.1.7-.2.7v-.7-.9zm.1 7.2zm-.1 9.5zm.1-.7v-.5c.1-.2.1 0 .2.4a1.6 1.6 0 0 1 0 .3h-.2zm.1 1.8c.1-.1.1.1.1.4a1.4 1.4 0 0 1 0 .2.9.9 0 0 1-.1-.4.9.9 0 0 1-.1-.3zM4 100.5zM1.1 23.4zM2.5 30zM1.7 26.3zM1.5 19.8a2.1 2.1 0 0 1 0-.3v-.7c-.1-.2-.1-.2-.2.2v-.7a1.1 1.1 0 0 1 0-.4.8.8 0 0 0 .1-.5 1.9 1.9 0 0 0-.1-.7h-.2c-.1 0-.2-.4-.3-.9a3.4 3.4 0 0 1 0-1v-.3c-.1-.4-.2-.5-.2-1s-.1-.3-.2-.2a1.4 1.4 0 0 0-.1.7 3.5 3.5 0 0 1 0 .9v.2-.5c0-.2.1-.3.1-.2a3.9 3.9 0 0 1 .1 1.5c0 .4-.1.8-.1 1.3h.3c.1.4.2.2.3-.1 0 .4-.1.8-.1 1.2s-.1.6-.1.6l-.2.2a.8.8 0 0 1 0-.3H.5a1.6 1.6 0 0 0-.1.5 1.3 1.3 0 0 0 .1.5h.2v.3a.7.7 0 0 0 0 .4 2.2 2.2 0 0 1 .1 1v.3a6.1 6.1 0 0 1 .1.9h.2v.3c.1.1.1.1.2.3v.7h-.1v1a5.5 5.5 0 0 0 0 .7v.3a.5.5 0 0 0-.1.3v.3H1v-.5a1.5 1.5 0 0 0 0-.6v-.2h.1a1.2 1.2 0 0 1 0 .6v.6c0 .1.1 0 .1-.2v-1l.2.5a1.9 1.9 0 0 1 0 .3v.6h.1l.2-.3a1.5 1.5 0 0 1 0 .6H2c-.1.3-.2.1-.3-.3a1 1 0 0 1 0-.1.7.7 0 0 1-.1-.3 3.9 3.9 0 0 0-.1.9v.2a2 2 0 0 0 0 .3c.1.3.1.9.2 1v.3a1.8 1.8 0 0 1 0 .5v.2a1.2 1.2 0 0 0-.1.7v.8c0 .3 0 .2.1.2h.1v-1.9a4 4 0 0 0 .2-.8c0-.2.1-.2.1-.1s.2.5.1 1.3a2.7 2.7 0 0 0 .2-.6 3 3 0 0 0 .1-.7 3.4 3.4 0 0 0 0-.5v-1.7a3.5 3.5 0 0 1-.1-1.5v-.5-.7-1-1c0-.3-.1.1-.1 0s-.2-.4-.3-.5-.1.2-.1.4a3.9 3.9 0 0 1 0 .6 2.1 2.1 0 0 0-.1.8v.8a1.2 1.2 0 0 1-.2.7v-.2a2.5 2.5 0 0 1 0-.5V23h.1v.3-.2c0-.5 0-.7.1-.8h.1c0-.3-.1-.6-.2-.4s-.1.1-.1-.1v-.6a10.8 10.8 0 0 0-.1-1.4zm-.4 1c0 .4-.1.5-.1.4a1.6 1.6 0 0 1-.1-.6v-.5c0-.2 0-.2.1-.1v.5c.1.1.1.2.1.3zm.2.8c0 .1-.1-.1-.1-.3V21h.1v.3zm1.3 6.5V28v.1zm-.2-4.9a.7.7 0 0 1 0 .3zM2.3 25zm0 2.6v.3a.7.7 0 0 1 0 .1s-.1 0-.1-.2-.1-.2-.1 0c0-.1 0-.1 0 0 .1-.2.1-.3.2-.2zM1.8 25a.2.2 0 0 1 0 .1zM1.7 26.3zM1.7 21.1v-.2zM1.8 14.7z" fill="#ffffff" style="fill: rgb(255, 255, 255);"></path><path d="M2.7 10.5s-.1.2-.1 0-.1-.4-.2-.4a1.2 1.2 0 0 1-.1-.5v-.5a1.2 1.2 0 0 0 0-.6v.3h-.2a2.6 2.6 0 0 1 .1 1c-.1.2-.2.1-.2-.2a1.5 1.5 0 0 1 0-.3 1.2 1.2 0 0 0 0-.4c.1 0 .1-.2.1-.5v-.3H2v.7l-.2-.2-.3-2.2-.2-.4-.3.8v.8a1.3 1.3 0 0 0 0 .3 4.3 4.3 0 0 1 .3.9.3.3 0 0 1-.1.3c0 .1-.1.1-.1.3v1a5.8 5.8 0 0 1 0 1v1.2h.2s.1.2.1.4v.7c0 .2 0 .4.1.4h.1s.1.1 0 .4 0 .2 0 .3h.1a.7.7 0 0 1 0 .4v.9s-.1.2-.1.7h.1v-.5a.4.4 0 0 0 0 .3 5 5 0 0 1 0 1.1c0 .2 0 .3.1.3s.1.1.1.2a1.2 1.2 0 0 1 0 .5v.3a.6.6 0 0 1 .1.4v1.7l.2-1.4v.4c0 .2.1.2.1 0v-.5c0-.3 0-.5.1-.5h.1a11.7 11.7 0 0 1 0-1.3 2.4 2.4 0 0 1 0-.6c-.1 0-.1-.1-.1-.4V16c0-.1.1-.1.1 0a2.2 2.2 0 0 1 0 .3 5.5 5.5 0 0 0 0 .6 3.8 3.8 0 0 0 0 .6h.1a2.5 2.5 0 0 1 0-.3c0-.1 0-.1.1 0a.7.7 0 0 1 0 .2h-.5a4.8 4.8 0 0 0 .1.8v.7c.1-.1.2 0 .2-.3h.1v-.2c0-.3 0-.9-.1-1a2 2 0 0 1-.1-.4v-.2h.1v-.2a.9.9 0 0 0 0-.2 4.6 4.6 0 0 1 0-1.7 6.4 6.4 0 0 0-.1-1.7h.2c-.1 0-.1.1-.1.4v1.7c-.1.1-.1.1-.1-.2s-.1-.5-.1-.3a3.6 3.6 0 0 1 .1-1.2.9.9 0 0 0 0-.4 1.4 1.4 0 0 1 0-.7c.1-.1.1-.1.2-.3s.1.1.2 0a2.2 2.2 0 0 0 .1-1v-.3zM1.5 12zm.1-1.3zm.4 3.2zm0-2.4l-.2-.5c.1-.6.1-.7.2-.4a.9.9 0 0 1 0 .4c.1.3 0 .5 0 .4zm.7 2.5a2.6 2.6 0 0 1 .1.4v.4c0 .1-.1-.1-.1-.3s-.1-.5 0-.5zm.1-3.3zM1.6 18.9zM64.9 100.7l.2-.2h-1.3c-.1.1.1.1-.4.2-.4-.1-.5-.2-.5-.3h-5c-.4 0-.7 0-.6.1l.3.2h-.9c.2 0 .3.1.2.2h-.7l-.2.2h-2.3l.4.2h-1c.4.1.4.1 0 .1-.1 0-.3.1-.2.2s.1.2-.3.3h3.2c.1 0 .1.1 0 .1h-.4c-.2 0-.2.1 0 .1h2.9c-.1-.1.1-.1.5-.1h1.5l.2-.2h-1.2a.9.9 0 0 0 0-.2h4.9c-.1-.1 0-.1.2-.1h.5zm-10.2.8zm2.3.7zm0-.6zm.3-.2zm1.3.3zm-.3.3h.5a.1.1 0 0 1 0 .1h1c.2.1.3.1-.4.2h-1.1c-.2-.2-.2-.2-.1-.2zm-.4-.8zm.4.1zm1.4-.7zM52.6 102.5zM65.1 100.9zM61 101.3zM53.1 101.9zM84 101.7s-.1.1.1.1.3.2.2.2h.4l.2-.2.6-.2h.3c.2 0 .3-.1.2-.2l-.3-.2v-.2s.1-.1-.1-.1-.2-.2-.5-.3h-3.7c-.4 0-.7 0-.6-.1H78a2 2 0 0 0-.9-.3h-.9l-.4-.2h-.3c-.7 0-.9 0-.8.2s-.1.2.1.4H74c.5-.1.3-.2.4-.2h.3a7.4 7.4 0 0 1 2.4.1h1.2l.9.2h1.6s.1 0 0 .1h.6c0-.1.1-.1 0-.2s.3-.1.4-.1H80v.2h-.8c-.4-.1-.2-.1-.1-.2h1.1l.4-.2h2.5l.4.2h.5zm-8.4-.6zm8.5.2zM71.9 101.1zM70.8 101.3zM68 101.7zM65.2 100.9zM73.9 100.7z" fill="#ffffff" style="fill: rgb(255, 255, 255);"></path><path d="M70.6 101.2h1.2l.2-.2h-4.4c.1 0 .2.1-.1.1h-2.3c.2 0 .1 0 0 .1v.2h-.1c-.3 0-.6.1-.5.2s0 .1-.1.2h-.9c.3 0 .4.1.1.1s0 .1.2.1h3.2-.7c-.1.1-.1.1.3.2h.5l.2.2-.9.2H68a1 1 0 0 0 0-.3h-.1v-.1c0-.1.1-.2-.4-.3s-.2-.1-.1-.1c-.2-.1.1-.1.5-.1h2.3s.1-.1 0-.1a3.2 3.2 0 0 0-1.3-.2h1.8c.2-.1.1-.2-.1-.2zm-4.8.5h-1l.4-.2.6.2zm1.2-.7zM2.5 35.6zM2.3 31a1.2 1.2 0 0 1-.1.6 2.3 2.3 0 0 0 0 .6 1.5 1.5 0 0 1 .1.7 2.7 2.7 0 0 0 0 .6v.5l-.2.3v.3a1.2 1.2 0 0 0 0 .3l.3.7a4.2 4.2 0 0 1 .1-.7v-.3h.1s.1.2.1 0v-.4a3.1 3.1 0 0 0 0-.7v-.8c0-.3.1-.6 0-1v-.3a2 2 0 0 0 0-.6c0-.2-.1-.3-.1-.2s-.2 0-.2-.4l-.2.5a1.4 1.4 0 0 0 .1.3zm.2.2v.5zM2.5 30zM2.2 31.8zM85 103.2zM83.2 101.9l-.4-.3h.4zM84.3 102.1zM37.1 101.7zM41 102.1zM39.8 101.9c.3-.1.1-.2-.3-.2s-.5-.1-.4-.2H39l-.7-.2H38c-.7 0-.8.1-.8.2v.2h1.7l.2.2h1c-.3.1-.5.1-.3 0zM1 29.5H.9v.2a4.5 4.5 0 0 0 0 .8v.2l.2-.2a.6.6 0 0 0 .2-.4c0-.2.1-.2.2-.4a2.5 2.5 0 0 0 .1-.9v-1.2c0-.4-.1-.5-.1-.4v.3c0-.1 0 0-.1.1a1.9 1.9 0 0 0 0 .5 1.1 1.1 0 0 1 .1.4c-.3.8-.3 1.3-.5 1zM101.1 52.9v.8c0 .3.1-.9.2-1s.2-2.1.2-3.3a3 3 0 0 0 0-.3v-.2.7c0 .3-.1.7-.1.8a3.3 3.3 0 0 1-.2.9 8.9 8.9 0 0 0-.1 1.6zM101.1 51.3zM101.1 53.7zM.6 32.8a2.3 2.3 0 0 0 0-.5.9.9 0 0 1 0-.4h.2c.1-.1.2.1.2.4s.1 0 .1-.2a2.2 2.2 0 0 0-.1-.7c-.1.2-.2-.4-.3-.3-.1 0-.1-.2-.1-.4a3.5 3.5 0 0 0 0-.6 1.6 1.6 0 0 0 0 .3 5.1 5.1 0 0 1 0 .7v.6a6.7 6.7 0 0 0-.1 1.1 1.3 1.3 0 0 0 .1.6c-.1-.3-.1-.4 0-.6zM60 101.5h2.8c.4-.1.3-.2 0-.2l-1.8-.2-1 .2c-.1.1 0 .2 0 .2zM61 101.3zM1.3 35.1a2.9 2.9 0 0 0 0-.3v-.2h-.1c-.1-.3-.3-.5-.4-.5H.7c-.1-.1-.1-.1-.1.2a7.1 7.1 0 0 1-.1 1 .8.8 0 0 0 0 .2v-.8c.1.1.1.3.2.2H1a.8.8 0 0 1 0 .4c.1-.3.1-.2.2.2zM.7 60.6zM.9 60.4c0-.2 0-.3.1-.3h.1a.5.5 0 0 0 0-.3.6.6 0 0 1 0-.3 2.8 2.8 0 0 0 0-.6 1.6 1.6 0 0 0-.1-.5v-.2c0 .6 0 .7-.1.7H.7c.1.4 0 .9.1 1.3a.5.5 0 0 1-.1.4v.2c.2.1.2.1.2-.4zM.3 27.4a3.2 3.2 0 0 1 .1.4c0 .4 0 .5.1.5h.1a3.8 3.8 0 0 0 0-.6c0-.2 0-.4.1-.4s.2.1.4.2 0-.1 0-.2-.2-.3-.2-.3-.1.2-.1.3a1.7 1.7 0 0 0 0-.7v-.4c0-.2-.1-.1-.1.1V26.7a.3.3 0 0 1 0 .2 1 1 0 0 0-.4.5zM92.4 1.2c.2-.1-.2-.1 0 0zM21.7.3zM21.3.4zM21.3.5zM21.5.6h1l-.4-.1c-.1 0-.2-.1 0-.1h-.6z" fill="#ffffff" style="fill: rgb(255, 255, 255);"></path><path d="M2.6 36.2c0 .2.1.2.1.2v-1.1c-.1 0-.1-.3-.2-.4a6 6 0 0 1-.1.7 2.8 2.8 0 0 0 .2.6zM28 100.6zM26.7 100.4zM18.7 101.7zM19.1 101.9h.6v-.1h-1q-.4.1.4.1zM.5 8.2c0 .3.1.4.2.3v-.1a2.2 2.2 0 0 0 0-1.1v-.2c-.1.2 0 .8-.1 1v.2zM.5 8zM24.3 102.2zM23.9 102.2H23l1.2.2c.2-.1.1-.1.1-.2zM19 .6zM3.4.6h.3C4 .5 3.6.4 3 .4h-.2l.5.2zM85.6.7h-1.4c-.1 0-.1 0 0 .1h1.4zM86.2.8zM101.9 17.5a1.7 1.7 0 0 0 0-.3c0-.3-.1-.6-.1-.6v.2a1.6 1.6 0 0 0 .1.9zM1.6 30.1v.7a1.8 1.8 0 0 0 .1.6v-.1a8.9 8.9 0 0 1 0-1zM87.6 102.6H87c-.2.1-.1.1 0 .2h.5c.2-.1.3-.1.1-.2zM7.7 101.3s-.1.1 0 .1zM9.8 101.5zM101.7 37.5s-.1.1-.1.3a4.7 4.7 0 0 0 0 .8c0 .2.1.2.1 0v-.9zM68 101.7h1.1c.3 0 .3-.1.3-.1H68zM1.9 31.4v1H2c0-.2 0-.4.1-.6v-.5c-.1 0-.1 0-.2.1zM2.2 31.7zM.9 36.6a2.8 2.8 0 0 0 0-.6c0-.2-.1-.3-.1-.2a1.7 1.7 0 0 0 0 .4 1.1 1.1 0 0 0 .1.5zM4.7 101.9h.8zM1.6 33.1c.1 0 .1-.2.1-.4s-.1-.5-.2-.5v.7s0 .1-.1.3 0 .3.1.3v-.2h.1zM1.6 35h-.1v2c0-.3.1-.5.1-.8V35zM101.9 29.5h.1v-.2a5.7 5.7 0 0 0-.1-1.1c-.1.5-.1.9 0 1.3zM101.9 8.4a1.8 1.8 0 0 0 0 .3 1.7 1.7 0 0 0 .1.7 2.2 2.2 0 0 0-.1-.9zM1.1 60.9v.4c.1.5.1.6.2.3a1.5 1.5 0 0 0 0-.6c-.2-.1-.2-.2-.2-.1zM82.1 101.8zM82.9 101.7zM12.6.4h.2c.2-.1.1-.1-.2-.1h-.1zM.7 66.2v-.1.1zM.7 66.2v.8a1.6 1.6 0 0 0 .1.5c0 .1.1 0 .1-.3v-.3a2.3 2.3 0 0 1-.1-.7zM.7 66.1zM.9 66.9zM1 43.2v0V42a7.7 7.7 0 0 0 0 1.2zM.6 12.1c-.1-.3-.1-.3-.2.1a1.5 1.5 0 0 0 0 .3c.1.2.1.4.2.1s.1-.1.1 0l.2.3c0 .1 0 .3.1.3s.1-.1.1-.2a.7.7 0 0 0 0-.4c0-.2.1-.3.1-.4s.1-.2.1-.5A1.9 1.9 0 0 0 1 11v-.3a11.9 11.9 0 0 0-.2 1.8zM.2 77.7h.1s.1-.1.1-.3v-.8a2.3 2.3 0 0 1-.1.5 1.7 1.7 0 0 0-.1.6zM.4 76.5zM72.6 101.5zM72.2 101.3h-.7c.3 0 .3 0 .2.1h.5a.5.5 0 0 1 0-.1zM72.2 101.3zM101.7 25.4s-.1.1-.1.3 0 .4.1.4a.9.9 0 0 0 .1-.4.5.5 0 0 0 0-.2zM.7 9.7v-.4a1 1 0 0 1 .1-.4v-.2H.7a5.7 5.7 0 0 0 0 1zM87.3 102zM.6 18.7h.1v-.2c-.1-.2-.1 0-.1.5v-.3zM.6 18.9zM31.6.3zM1 45.4zM.9 44.9v.2a.7.7 0 0 0 .1.4c0 .1.1 0 .1-.1V45c-.1-.2-.2-.1-.2-.1zM70.1 101.9zM2 36.1a1 1 0 0 0 0-.2 5.8 5.8 0 0 1-.1-.6v.7zM101.5 102v.1zM21.2.4h-.8c-.2 0-.1.1.2.2zM20.5.6zM21.3.4zM19.7.4zM68.5 102.2zM71.2 102.2zM70.2 102.3zM49.2 102.3c-.1 0-.2.1-.1.1h.1zM.4 61.4a.9.9 0 0 0 0-.6v.4a.4.4 0 0 0 0 .2zM47.6 102.4zM101.7 21.4v-.8.7zM2.6 65.9a2.4 2.4 0 0 0 0-.3c0-.1 0-.1 0 0a2.7 2.7 0 0 0 0 .3zM2.6 86.9zM1.8 35.2h.1s-.1-.3-.1-.5a1.4 1.4 0 0 0 0 .3v.2zM1.9 35.2v.1zM3.1 1.1h.4V1h-.4zM1.3 42v.7h.1v-.8zM102 4.2h-.1a1.3 1.3 0 0 0 0 .3h.1a1 1 0 0 0 0-.3zM79.6 102c-.1-.1-.1-.1 0 0zM26.9 102.1zM.5 7.9v-.5H.4v.2zM.5 8zM.4 44.2h.1V44zM88.2.1zM11.4 100.4h-.3.3zM31.7 102.2zM19 102.2zM19.3 102.3zM.7 61.3v-.7.7zM1.7 15.2v-.5a.9.9 0 0 0 0 .5zM1.8 15.4zM71.9 102h.5zM.8 100.3a.5.5 0 0 0 0 .3v-.6a.5.5 0 0 1 0 .3zM.8 100zM21.3.5zM21.1.6zM28.7 101.8zM8.9 101.8zM1 69.6v-.3-.1.3zM1.1 79.8v.8zM1.1 75.8v-.3H1a.7.7 0 0 1 .1.3zM1 75.7zM1.2 57.5a2.1 2.1 0 0 0 0-.3c0-.2 0-.2 0 0a2.7 2.7 0 0 0 0 .3zM94.4.9zM1.3 41v-.2c0-.1-.1-.1-.1 0a.9.9 0 0 0 0 .2zM70 100.6zM1.5 14.3V14h-.1v.3c0 .2 0 .2.1 0zM101.8 33.7v-.8a3.3 3.3 0 0 0-.1.7zM101.8 32.9zM71.5 101.3zM70.9 101.3l.6.2v-.2h-.6zM43.4 100.5zM39.1 102.5zM.5 10.3a1.8 1.8 0 0 0 0 .3c0 .2 0 .2.1.1v-.3c-.1-.1-.1-.2-.1-.1zM39.2 102.3zM4.7.3zM5.5.3zM55.5 100.6zM2.4 46.7v-.2zM2.5 12.7v-.2zM2.7 38a.6.6 0 0 0 0 .3zM2.8 26.4zM2.8 26v.3a2 2 0 0 0 0-.3zM.7 23.8a.2.2 0 0 0 0-.2.8.8 0 0 0 0 .1zM.7 9.8zM.8 10v-.2V10zM14.1 102zM14.1 102zM.8 48.9c0-.1 0 0 0 0zM1 44.3zM.9 6.7zM53.7.7zM76.8.7zM87 101.8zM3.4.9zM102 7.2zM.4 48.8v-.1l-.1.1h.1zM1.3 38.7a.6.6 0 0 0 0-.1c-.1.2-.1.2 0 .1zM75.8 101.6zM1.4 35.5a.7.7 0 0 0 0 .1v-.1zM41.5 102.3zM41.5 102.3zM.5 8.6v-.1zM101.7 51.2h-.1l.1.1v-.1zM1.6 40.5zM19.3 102.3zM19.5 102.3zM.6 41.8zM101.4 21.1c0 .2 0 .2 0 0v-.3.3zM47.8 102.2zM18.1 102.3c-.1-.1-.1 0 0 0zM73.9 100.8zM73.9 100.7zM.6 2.2V2zM2.1 32.7v.5-.5zM2.1 32.3a1.8 1.8 0 0 0 0 .3v-.2zM2.8 36.3v-.1.1zM2.6 44.5v-.2.2zM23.1 100.4zM2.3 64.3zM2.3 80zM2.3 80zM46.8 100.6l.1-.1-.1.1zM71.9 100.6h.1-.1zM65.7 100.6zM2.2 33.2v-.1.1zM101.2 50.5l.1-.1h-.1v.1zM1.9 6.6zM91.6 101h-.1.1zM64.2 101.1zM1.6 59.1zM101.7 18.4v.1-.1zM74 101.5h.1-.1zM92.4 1zM20.8.9h-.1.1zM19.3 1zM1.3 42.8zM1.3 50zM18.5.8zM18.6.9s-.2 0 0 0zM1 38.4zM1.1 67.4H1a.8.8 0 0 0 0 .4v.2a1.7 1.7 0 0 0 0-.6zM98.7.8zM1 6v.1V6zM1.1 35.3zM1.1 35.3zM1 100.1c.1 0 .1 0 0 0zM23.3 102zM.9 58zM.9 73.3c0-.1 0-.1 0 0zM.9 100.5zM.8 33.1l.1-.1-.1-.1v.2zM.8 64zM.7 69.3v-.1zM.7 1.3v.1-.1zM71.2 102.2zM.6 15.2v-.1.1zM.6 28.3zM80.9 102.3h.1l-.1-.1v.1zM10.2.3zM.5 10.7zM.6 10.9c-.1 0-.1 0 0 0zM.6 22.6a.2.2 0 0 0 0 .2zM30.6 102.3h-.1.1zM37.8 102.4zM.4 60.7zM.4 60.7zM66.4 102.5zM69.5 102.5zM69.4 102.5zM52.9 102.5zM52.9 102.5zM74.5 102.6zM74.4 102.6zM72.5 1.2zM71.1 1.3zM79.3 1.5zM79.1 1.5zM68.2.9zM32.3 1zM32.5 1zM32.3.9h.1s.2.1-.1 0zM100.8 14.6v.2zM14.7 101.2zM8.9 101.3H9h-.1zM1.2 63.9v.3a2.6 2.6 0 0 0 0-.3zM2.1 30.8zM2.1 30.8c0-.1 0-.1 0 0zM1 19.9zM59.2 102.2zM80.9 101.1z" fill="#ffffff" style="fill: rgb(255, 255, 255);"></path></g></g></svg>