<svg xmlns="http://www.w3.org/2000/svg" version="1.1" xmlns:xlink="http://www.w3.org/1999/xlink" xmlns:svgjs="http://svgjs.com/svgjs" height="141.70501708984375" width="257.54998779296875"><defs id="SvgjsDefs2289"></defs><g id="SvgjsG2290" rel="mainfill" name="main_text" xmlns:name="main_text" transform="translate(-2.140000104904175,-104.614990234375)" fill="#222222"><path d="M14.54 213.01L7.54 223.15L19.33 240L17.48 240L6.57 224.41L3.66 228.57L3.66 240L2.14 240L2.14 213.01L3.66 213.01L3.66 225.93L12.69 213.01L14.54 213.01ZM38.78 240L37.25 240L37.25 236.62Q36.82 237.21 36.30 237.75Q33.59 240.48 29.74 240.48Q25.92 240.48 23.20 237.76Q20.48 235.04 20.48 231.22Q20.48 227.37 23.20 224.66Q25.92 221.95 29.74 221.95Q33.59 221.95 36.30 224.66Q36.82 225.19 37.25 225.78L37.25 223.43L38.78 223.43L38.78 240M37.25 232.71L37.25 229.71Q36.83 227.48 35.16 225.80Q32.90 223.55 29.74 223.55Q26.57 223.55 24.32 225.80Q22.08 228.05 22.08 231.22Q22.08 234.39 24.32 236.62Q26.57 238.85 29.74 238.85Q32.90 238.85 35.16 236.60Q36.83 234.92 37.25 232.71ZM46.66 231.11Q44.74 230.06 43.99 229.31Q42.83 228.15 42.83 226.51Q42.83 224.87 43.99 223.69Q45.16 222.52 46.80 222.52Q48.44 222.52 49.53 223.61Q50.58 224.66 50.58 226.01L50.58 226.09L49.26 226.62Q49.09 225.34 48.46 224.69Q47.83 224.04 46.80 224.04Q45.79 224.04 45.06 224.77Q44.34 225.50 44.34 226.51Q44.34 227.52 45.06 228.24Q45.48 228.68 46.84 229.54Q48.99 230.71 49.91 231.62Q51.34 233.07 51.34 235.08Q51.34 237.14 49.91 238.58Q48.48 240.02 46.43 240.02Q44.39 240.02 42.96 238.58Q41.53 237.14 41.53 235.42L43.04 235.04Q43.04 236.51 44.04 237.51Q45.04 238.51 46.43 238.51Q47.83 238.51 48.84 237.51Q49.85 236.51 49.85 235.08Q49.85 233.68 48.84 232.69Q48.31 232.16 46.66 231.11ZM54.53 223.43L56.05 223.43L56.05 225.76Q56.47 225.19 57.01 224.66Q59.72 221.96 63.55 221.96Q67.39 221.96 70.10 224.66Q72.81 227.37 72.81 231.22Q72.81 235.04 70.10 237.76Q67.39 240.48 63.55 240.48Q59.72 240.48 57.01 237.75Q56.47 237.21 56.05 236.64L56.05 246.32L54.53 246.32L54.53 223.43M56.05 229.64L56.05 232.80Q56.47 234.98 58.13 236.62Q60.39 238.87 63.55 238.87Q66.72 238.87 68.96 236.63Q71.21 234.39 71.21 231.22Q71.21 228.05 68.96 225.80Q66.72 223.55 63.55 223.55Q60.39 223.55 58.13 225.80Q56.47 227.46 56.05 229.64ZM76.89 228.82L91.44 228.82Q90.90 227.08 89.62 225.80Q87.37 223.55 84.20 223.55Q81.04 223.55 78.78 225.80Q77.45 227.16 76.89 228.82M76.61 230.36Q76.55 230.76 76.55 231.22Q76.55 234.39 78.79 236.62Q81.04 238.85 84.20 238.85Q87.37 238.85 89.62 236.60Q90.01 236.22 90.35 235.80L91.97 236.37Q91.69 236.85 90.77 237.75Q88.06 240.48 84.20 240.48Q80.39 240.48 77.67 237.76Q74.95 235.04 74.95 231.22Q74.95 227.37 77.67 224.66Q80.39 221.95 84.20 221.95Q88.06 221.95 90.77 224.66Q93.16 227.06 93.16 230.36L76.61 230.36ZM101.59 224.77Q99.97 225.02 98.40 226.83Q96.84 228.64 96.84 230.50L96.84 240L95.31 240L95.31 223.43L96.84 223.43L96.84 227.02Q97.79 224.52 100.75 223.30L101.59 224.77ZM112.22 221.95Q116.08 221.95 118.78 224.66Q121.48 227.37 121.48 231.22Q121.48 235.04 118.78 237.76Q116.08 240.48 112.22 240.48Q108.40 240.48 105.69 237.76Q102.97 235.04 102.97 231.22Q102.97 227.37 105.69 224.66Q108.40 221.95 112.22 221.95M112.22 223.55Q109.05 223.55 106.81 225.80Q104.57 228.05 104.57 231.22Q104.57 234.39 106.81 236.62Q109.05 238.85 112.22 238.85Q115.39 238.85 117.63 236.62Q119.88 234.39 119.88 231.22Q119.88 228.05 117.63 225.80Q115.39 223.55 112.22 223.55ZM138.39 223.43L130.98 240L130.18 240L122.85 223.43L124.63 223.43L130.58 237.23L136.61 223.43L138.39 223.43ZM142.17 223.43L142.17 240L140.66 240L140.66 223.43L142.17 223.43M141.42 217.57Q142.03 217.57 142.48 218.01Q142.93 218.45 142.93 219.06Q142.93 219.71 142.48 220.15Q142.03 220.59 141.42 220.59Q140.79 220.59 140.34 220.15Q139.90 219.71 139.90 219.06Q139.90 218.45 140.34 218.01Q140.79 217.57 141.42 217.57ZM160.64 236.01L162.24 236.60Q161.81 237.19 161.25 237.75Q158.54 240.48 154.69 240.48Q150.87 240.48 148.15 237.76Q145.43 235.04 145.43 231.20Q145.43 227.37 148.15 224.66Q150.87 221.95 154.69 221.95Q158.54 221.95 161.25 224.66Q161.81 225.21 162.24 225.80L160.64 226.39Q160.39 226.09 160.11 225.78Q157.86 223.55 154.69 223.55Q151.54 223.55 149.30 225.79Q147.05 228.03 147.05 231.20Q147.05 234.37 149.30 236.61Q151.54 238.85 154.69 238.85Q157.86 238.85 160.11 236.60Q160.39 236.32 160.64 236.01ZM165.03 213.01L166.56 213.01L166.56 224.29Q168.47 222.44 171.18 222.44Q174.10 222.44 175.94 224.28Q177.78 226.12 177.84 228.91L177.84 240L176.31 240L176.31 229.06Q176.31 226.95 174.78 225.46Q173.26 223.97 171.18 223.97Q169.08 223.97 167.57 225.44Q166.88 226.11 166.56 226.83L166.56 240L165.03 240L165.03 213.01ZM196.46 213.01Q203.13 213.05 206.79 216.73Q210.84 220.80 210.84 226.51Q210.84 232.25 206.79 236.30Q203.13 239.96 196.46 240L191.46 240L191.46 213.01L196.46 213.01M192.99 214.60L192.99 238.43L196.45 238.43Q202.27 238.43 205.63 235.19Q209.21 231.60 209.21 226.51Q209.21 221.43 205.63 217.82Q202.27 214.60 196.45 214.60L192.99 214.60ZM215.80 223.43L215.80 240L214.29 240L214.29 223.43L215.80 223.43M215.05 217.57Q215.66 217.57 216.11 218.01Q216.56 218.45 216.56 219.06Q216.56 219.71 216.11 220.15Q215.66 220.59 215.05 220.59Q214.42 220.59 213.98 220.15Q213.53 219.71 213.53 219.06Q213.53 218.45 213.98 218.01Q214.42 217.57 215.05 217.57ZM219.96 223.43L221.49 223.43L221.49 223.83Q222.90 222.46 224.86 222.46Q226.91 222.46 228.34 223.89Q228.72 224.27 229.01 224.73Q229.31 224.29 229.71 223.89Q231.14 222.46 233.19 222.46Q235.23 222.46 236.66 223.89Q238.01 225.29 238.09 227.21L238.09 240L236.56 240L236.56 227.21L236.58 227.21Q236.52 225.90 235.59 224.98Q234.58 223.99 233.19 223.99Q231.77 223.99 230.77 224.98Q229.77 225.97 229.77 227.46L229.77 240L228.26 240L228.26 227.21L228.28 227.21Q228.20 225.90 227.27 224.98Q226.26 223.99 224.86 223.99Q223.47 223.99 222.48 224.98Q221.60 225.84 221.49 227.08L221.49 240L219.96 240L219.96 223.43ZM259.69 240L258.17 240L258.17 236.62Q257.73 237.21 257.21 237.75Q254.50 240.48 250.65 240.48Q246.83 240.48 244.11 237.76Q241.39 235.04 241.39 231.22Q241.39 227.37 244.11 224.66Q246.83 221.95 250.65 221.95Q254.50 221.95 257.21 224.66Q257.73 225.19 258.17 225.78L258.17 223.43L259.69 223.43L259.69 240M258.17 232.71L258.17 229.71Q257.75 227.48 256.07 225.80Q253.82 223.55 250.65 223.55Q247.48 223.55 245.24 225.80Q242.99 228.05 242.99 231.22Q242.99 234.39 245.24 236.62Q247.48 238.85 250.65 238.85Q253.82 238.85 256.07 236.60Q257.75 234.92 258.17 232.71Z" fill="#222222" style="fill: rgb(34, 34, 34);"></path></g><g id="SvgjsG2291" rel="mainfill" name="symbol" xmlns:name="symbol_mainfill" transform="translate(78.25449085235596,-3.48799991607666) scale(1)" fill="#222222"><path d="M42.716,3.488H9.607c-2.894,0-5.241,2.346-5.241,5.241v33.07c0,2.896,2.347,5.241,5.241,5.241h33.109  c2.895,0,5.242-2.346,5.242-5.241V8.729C47.958,5.833,45.611,3.488,42.716,3.488z M41.851,37.167c0,2.083-1.689,3.772-3.772,3.772  H14.246c-2.083,0-3.772-1.689-3.772-3.772V13.362c0-2.083,1.689-3.772,3.772-3.772h23.833c2.083,0,3.772,1.689,3.772,3.772V37.167z" fill="#222222" style="fill: rgb(34, 34, 34);"></path><path d="M47.958,90.77c0,2.895-2.347,5.241-5.242,5.241H9.607c-2.894,0-5.241-2.347-5.241-5.241V57.698  c0-2.895,2.347-5.241,5.241-5.241h33.109c2.895,0,5.242,2.347,5.242,5.241V90.77z" fill="#222222" style="fill: rgb(34, 34, 34);"></path><path d="M91.434,96.883H58.325c-2.895,0-5.24-2.347-5.24-5.24V58.569c0-2.894,2.346-5.24,5.24-5.24h33.108  c2.896,0,5.241,2.347,5.241,5.24v33.073C96.675,94.536,94.329,96.883,91.434,96.883z M90.567,63.204  c0-2.084-1.689-3.772-3.772-3.772H62.964c-2.084,0-3.773,1.688-3.773,3.772v23.805c0,2.082,1.689,3.771,3.773,3.771h23.831  c2.083,0,3.772-1.689,3.772-3.771V63.204z" fill="#222222" style="fill: rgb(34, 34, 34);"></path><path d="M96.675,9.602c0-2.895-2.346-5.241-5.241-5.241H58.325c-2.895,0-5.24,2.347-5.24,5.241v33.071  c0,2.894,2.346,5.241,5.24,5.241h33.108c2.896,0,5.241-2.348,5.241-5.241V9.602z" fill="#222222" style="fill: rgb(34, 34, 34);"></path></g></svg>